<?xml version="1.0" encoding="UTF-8" standalone="no"?>
<svg
   height="20.899277mm"
   viewBox="0 0 20.899277 20.899277"
   width="20.899277mm"
   version="1.1"
   id="svg1"
   sodipodi:docname="inspect_clean.svg"
   inkscape:export-filename="inspect_clean.png"
   inkscape:export-xdpi="96"
   inkscape:export-ydpi="96"
   xmlns:inkscape="http://www.inkscape.org/namespaces/inkscape"
   xmlns:sodipodi="http://sodipodi.sourceforge.net/DTD/sodipodi-0.dtd"
   xmlns="http://www.w3.org/2000/svg"
   xmlns:svg="http://www.w3.org/2000/svg">
  <defs
     id="defs1" />
  <sodipodi:namedview
     id="namedview1"
     pagecolor="#505050"
     bordercolor="#eeeeee"
     borderopacity="1"
     inkscape:showpageshadow="0"
     inkscape:pageopacity="0"
     inkscape:pagecheckerboard="0"
     inkscape:deskcolor="#d1d1d1"
     inkscape:document-units="mm"
     showgrid="false" />
  <g
     fill="none"
     stroke="#ffffff"
     stroke-miterlimit="1.5"
     transform="translate(-63.506881,-122.78948)"
     id="g1">
    <rect
       height="18.782608"
       ry="2.905287"
       stroke-width="2.11667"
       width="18.782608"
       x="64.565216"
       y="123.84782"
       id="rect1" />
    <path
       d="m 76.188374,129.0022 c -0.06121,-0.003 -0.123722,0.0158 -0.173486,0.0599 -0.09953,0.0881 -0.108874,0.2392 -0.02079,0.33872 l 3.184401,3.59841 H 68.201203 c -0.132906,0 -0.240156,0.10689 -0.240156,0.2398 0,0.13291 0.10725,0.23979 0.240156,0.23979 H 79.1785 l -3.184402,3.59841 c -0.08808,0.0995 -0.07874,0.25064 0.02079,0.33872 0.09953,0.0881 0.250282,0.0787 0.33837,-0.0208 2.349161,-2.62063 3.692055,-3.91613 3.692055,-4.15602 0,-0.2399 -1.336566,-1.49543 -3.691512,-4.15601 -0.04405,-0.0497 -0.103671,-0.0769 -0.164883,-0.0807 z"
       stroke-width="1.46818"
       id="path1"
       sodipodi:nodetypes="ccccssscccczccc" />
  </g>
</svg>
